<svg width="822" height="804" viewBox="0 0 822 804" fill="none" xmlns="http://www.w3.org/2000/svg">
<g filter="url(#filter0_d_3_340)">
<rect x="100" y="50" width="290" height="284" rx="8" fill="white"/>
</g>
<path d="M184.764 211.152V228H180.66V211.152H184.764ZM195.898 214.464C197.466 214.464 198.714 214.976 199.642 216C200.586 217.008 201.058 218.4 201.058 220.176V228H196.978V220.728C196.978 219.832 196.746 219.136 196.282 218.64C195.818 218.144 195.194 217.896 194.41 217.896C193.626 217.896 193.002 218.144 192.538 218.64C192.074 219.136 191.842 219.832 191.842 220.728V228H187.738V214.608H191.842V216.384C192.258 215.792 192.818 215.328 193.522 214.992C194.226 214.64 195.018 214.464 195.898 214.464ZM212.07 214.464C213.638 214.464 214.886 214.976 215.814 216C216.758 217.008 217.23 218.4 217.23 220.176V228H213.15V220.728C213.15 219.832 212.918 219.136 212.454 218.64C211.99 218.144 211.366 217.896 210.582 217.896C209.798 217.896 209.174 218.144 208.71 218.64C208.246 219.136 208.014 219.832 208.014 220.728V228H203.91V214.608H208.014V216.384C208.43 215.792 208.99 215.328 209.694 214.992C210.398 214.64 211.19 214.464 212.07 214.464ZM226.178 228.192C224.866 228.192 223.682 227.912 222.626 227.352C221.586 226.792 220.762 225.992 220.154 224.952C219.562 223.912 219.266 222.696 219.266 221.304C219.266 219.928 219.57 218.72 220.178 217.68C220.786 216.624 221.618 215.816 222.674 215.256C223.73 214.696 224.914 214.416 226.226 214.416C227.538 214.416 228.722 214.696 229.778 215.256C230.834 215.816 231.666 216.624 232.274 217.68C232.882 218.72 233.186 219.928 233.186 221.304C233.186 222.68 232.874 223.896 232.25 224.952C231.642 225.992 230.802 226.792 229.73 227.352C228.674 227.912 227.49 228.192 226.178 228.192ZM226.178 224.64C226.962 224.64 227.626 224.352 228.17 223.776C228.73 223.2 229.01 222.376 229.01 221.304C229.01 220.232 228.738 219.408 228.194 218.832C227.666 218.256 227.01 217.968 226.226 217.968C225.426 217.968 224.762 218.256 224.234 218.832C223.706 219.392 223.442 220.216 223.442 221.304C223.442 222.376 223.698 223.2 224.21 223.776C224.738 224.352 225.394 224.64 226.178 224.64ZM241.387 224.16L244.291 214.608H248.659L243.907 228H238.843L234.091 214.608H238.483L241.387 224.16ZM249.57 221.28C249.57 219.904 249.826 218.696 250.338 217.656C250.866 216.616 251.578 215.816 252.474 215.256C253.37 214.696 254.37 214.416 255.474 214.416C256.418 214.416 257.242 214.608 257.946 214.992C258.666 215.376 259.218 215.88 259.602 216.504V214.608H263.706V228H259.602V226.104C259.202 226.728 258.642 227.232 257.922 227.616C257.218 228 256.394 228.192 255.45 228.192C254.362 228.192 253.37 227.912 252.474 227.352C251.578 226.776 250.866 225.968 250.338 224.928C249.826 223.872 249.57 222.656 249.57 221.28ZM259.602 221.304C259.602 220.28 259.314 219.472 258.738 218.88C258.178 218.288 257.49 217.992 256.674 217.992C255.858 217.992 255.162 218.288 254.586 218.88C254.026 219.456 253.746 220.256 253.746 221.28C253.746 222.304 254.026 223.12 254.586 223.728C255.162 224.32 255.858 224.616 256.674 224.616C257.49 224.616 258.178 224.32 258.738 223.728C259.314 223.136 259.602 222.328 259.602 221.304ZM274.14 224.52V228H272.052C270.564 228 269.404 227.64 268.572 226.92C267.74 226.184 267.324 224.992 267.324 223.344V218.016H265.692V214.608H267.324V211.344H271.428V214.608H274.116V218.016H271.428V223.392C271.428 223.792 271.524 224.08 271.716 224.256C271.908 224.432 272.228 224.52 272.676 224.52H274.14ZM278.49 213.216C277.77 213.216 277.178 213.008 276.714 212.592C276.266 212.16 276.042 211.632 276.042 211.008C276.042 210.368 276.266 209.84 276.714 209.424C277.178 208.992 277.77 208.776 278.49 208.776C279.194 208.776 279.77 208.992 280.218 209.424C280.682 209.84 280.914 210.368 280.914 211.008C280.914 211.632 280.682 212.16 280.218 212.592C279.77 213.008 279.194 213.216 278.49 213.216ZM280.53 214.608V228H276.426V214.608H280.53ZM289.528 224.16L292.432 214.608H296.8L292.048 228H286.984L282.232 214.608H286.624L289.528 224.16ZM311.151 221.088C311.151 221.472 311.127 221.872 311.079 222.288H301.791C301.855 223.12 302.119 223.76 302.583 224.208C303.063 224.64 303.647 224.856 304.335 224.856C305.359 224.856 306.071 224.424 306.471 223.56H310.839C310.615 224.44 310.207 225.232 309.615 225.936C309.039 226.64 308.311 227.192 307.431 227.592C306.551 227.992 305.567 228.192 304.479 228.192C303.167 228.192 301.999 227.912 300.975 227.352C299.951 226.792 299.151 225.992 298.575 224.952C297.999 223.912 297.711 222.696 297.711 221.304C297.711 219.912 297.991 218.696 298.551 217.656C299.127 216.616 299.927 215.816 300.951 215.256C301.975 214.696 303.151 214.416 304.479 214.416C305.775 214.416 306.927 214.688 307.935 215.232C308.943 215.776 309.727 216.552 310.287 217.56C310.863 218.568 311.151 219.744 311.151 221.088ZM306.951 220.008C306.951 219.304 306.711 218.744 306.231 218.328C305.751 217.912 305.151 217.704 304.431 217.704C303.743 217.704 303.159 217.904 302.679 218.304C302.215 218.704 301.927 219.272 301.815 220.008H306.951ZM195.604 262.168C194.372 262.168 193.268 261.968 192.292 261.568C191.316 261.168 190.532 260.576 189.94 259.792C189.364 259.008 189.06 258.064 189.028 256.96H193.396C193.46 257.584 193.676 258.064 194.044 258.4C194.412 258.72 194.892 258.88 195.484 258.88C196.092 258.88 196.572 258.744 196.924 258.472C197.276 258.184 197.452 257.792 197.452 257.296C197.452 256.88 197.308 256.536 197.02 256.264C196.748 255.992 196.404 255.768 195.988 255.592C195.588 255.416 195.012 255.216 194.26 254.992C193.172 254.656 192.284 254.32 191.596 253.984C190.908 253.648 190.316 253.152 189.82 252.496C189.324 251.84 189.076 250.984 189.076 249.928C189.076 248.36 189.644 247.136 190.78 246.256C191.916 245.36 193.396 244.912 195.22 244.912C197.076 244.912 198.572 245.36 199.708 246.256C200.844 247.136 201.452 248.368 201.532 249.952H197.092C197.06 249.408 196.86 248.984 196.492 248.68C196.124 248.36 195.652 248.2 195.076 248.2C194.58 248.2 194.18 248.336 193.876 248.608C193.572 248.864 193.42 249.24 193.42 249.736C193.42 250.28 193.676 250.704 194.188 251.008C194.7 251.312 195.5 251.64 196.588 251.992C197.676 252.36 198.556 252.712 199.228 253.048C199.916 253.384 200.508 253.872 201.004 254.512C201.5 255.152 201.748 255.976 201.748 256.984C201.748 257.944 201.5 258.816 201.004 259.6C200.524 260.384 199.82 261.008 198.892 261.472C197.964 261.936 196.868 262.168 195.604 262.168ZM210.369 262.192C209.057 262.192 207.873 261.912 206.817 261.352C205.777 260.792 204.953 259.992 204.345 258.952C203.753 257.912 203.457 256.696 203.457 255.304C203.457 253.928 203.761 252.72 204.369 251.68C204.977 250.624 205.809 249.816 206.865 249.256C207.921 248.696 209.105 248.416 210.417 248.416C211.729 248.416 212.913 248.696 213.969 249.256C215.025 249.816 215.857 250.624 216.465 251.68C217.073 252.72 217.377 253.928 217.377 255.304C217.377 256.68 217.065 257.896 216.441 258.952C215.833 259.992 214.993 260.792 213.921 261.352C212.865 261.912 211.681 262.192 210.369 262.192ZM210.369 258.64C211.153 258.64 211.817 258.352 212.361 257.776C212.921 257.2 213.201 256.376 213.201 255.304C213.201 254.232 212.929 253.408 212.385 252.832C211.857 252.256 211.201 251.968 210.417 251.968C209.617 251.968 208.953 252.256 208.425 252.832C207.897 253.392 207.633 254.216 207.633 255.304C207.633 256.376 207.889 257.2 208.401 257.776C208.929 258.352 209.585 258.64 210.369 258.64ZM223.658 244.24V262H219.554V244.24H223.658ZM239.857 248.608V262H235.753V260.176C235.337 260.768 234.769 261.248 234.049 261.616C233.345 261.968 232.561 262.144 231.697 262.144C230.673 262.144 229.769 261.92 228.985 261.472C228.201 261.008 227.593 260.344 227.161 259.48C226.729 258.616 226.513 257.6 226.513 256.432V248.608H230.593V255.88C230.593 256.776 230.825 257.472 231.289 257.968C231.753 258.464 232.377 258.712 233.161 258.712C233.961 258.712 234.593 258.464 235.057 257.968C235.521 257.472 235.753 256.776 235.753 255.88V248.608H239.857ZM250.268 258.52V262H248.18C246.692 262 245.532 261.64 244.7 260.92C243.868 260.184 243.452 258.992 243.452 257.344V252.016H241.82V248.608H243.452V245.344H247.556V248.608H250.244V252.016H247.556V257.392C247.556 257.792 247.652 258.08 247.844 258.256C248.036 258.432 248.356 258.52 248.804 258.52H250.268ZM254.618 247.216C253.898 247.216 253.306 247.008 252.842 246.592C252.394 246.16 252.17 245.632 252.17 245.008C252.17 244.368 252.394 243.84 252.842 243.424C253.306 242.992 253.898 242.776 254.618 242.776C255.322 242.776 255.898 242.992 256.346 243.424C256.81 243.84 257.042 244.368 257.042 245.008C257.042 245.632 256.81 246.16 256.346 246.592C255.898 247.008 255.322 247.216 254.618 247.216ZM256.658 248.608V262H252.554V248.608H256.658ZM265.729 262.192C264.417 262.192 263.233 261.912 262.177 261.352C261.137 260.792 260.313 259.992 259.705 258.952C259.113 257.912 258.817 256.696 258.817 255.304C258.817 253.928 259.121 252.72 259.729 251.68C260.337 250.624 261.169 249.816 262.225 249.256C263.281 248.696 264.465 248.416 265.777 248.416C267.089 248.416 268.273 248.696 269.329 249.256C270.385 249.816 271.217 250.624 271.825 251.68C272.433 252.72 272.737 253.928 272.737 255.304C272.737 256.68 272.425 257.896 271.801 258.952C271.193 259.992 270.353 260.792 269.281 261.352C268.225 261.912 267.041 262.192 265.729 262.192ZM265.729 258.64C266.513 258.64 267.177 258.352 267.721 257.776C268.281 257.2 268.561 256.376 268.561 255.304C268.561 254.232 268.289 253.408 267.745 252.832C267.217 252.256 266.561 251.968 265.777 251.968C264.977 251.968 264.313 252.256 263.785 252.832C263.257 253.392 262.993 254.216 262.993 255.304C262.993 256.376 263.249 257.2 263.761 257.776C264.289 258.352 264.945 258.64 265.729 258.64ZM283.074 248.464C284.642 248.464 285.89 248.976 286.818 250C287.762 251.008 288.234 252.4 288.234 254.176V262H284.154V254.728C284.154 253.832 283.922 253.136 283.458 252.64C282.994 252.144 282.37 251.896 281.586 251.896C280.802 251.896 280.178 252.144 279.714 252.64C279.25 253.136 279.018 253.832 279.018 254.728V262H274.914V248.608H279.018V250.384C279.434 249.792 279.994 249.328 280.698 248.992C281.402 248.64 282.194 248.464 283.074 248.464ZM296.534 262.192C295.366 262.192 294.326 261.992 293.414 261.592C292.502 261.192 291.782 260.648 291.254 259.96C290.726 259.256 290.43 258.472 290.366 257.608H294.422C294.47 258.072 294.686 258.448 295.07 258.736C295.454 259.024 295.926 259.168 296.486 259.168C296.998 259.168 297.39 259.072 297.662 258.88C297.95 258.672 298.094 258.408 298.094 258.088C298.094 257.704 297.894 257.424 297.494 257.248C297.094 257.056 296.446 256.848 295.55 256.624C294.59 256.4 293.79 256.168 293.15 255.928C292.51 255.672 291.958 255.28 291.494 254.752C291.03 254.208 290.798 253.48 290.798 252.568C290.798 251.8 291.006 251.104 291.422 250.48C291.854 249.84 292.478 249.336 293.294 248.968C294.126 248.6 295.11 248.416 296.246 248.416C297.926 248.416 299.246 248.832 300.206 249.664C301.182 250.496 301.742 251.6 301.886 252.976H298.094C298.03 252.512 297.822 252.144 297.47 251.872C297.134 251.6 296.686 251.464 296.126 251.464C295.646 251.464 295.278 251.56 295.022 251.752C294.766 251.928 294.638 252.176 294.638 252.496C294.638 252.88 294.838 253.168 295.238 253.36C295.654 253.552 296.294 253.744 297.158 253.936C298.15 254.192 298.958 254.448 299.582 254.704C300.206 254.944 300.75 255.344 301.214 255.904C301.694 256.448 301.942 257.184 301.958 258.112C301.958 258.896 301.734 259.6 301.286 260.224C300.854 260.832 300.222 261.312 299.39 261.664C298.574 262.016 297.622 262.192 296.534 262.192Z" fill="#0B1131"/>
<g filter="url(#filter1_d_3_340)">
<path d="M281 149C281 129.118 264.882 113 245 113C225.118 113 209 129.118 209 149V185H245C264.882 185 281 168.882 281 149Z" fill="#3029D9"/>
</g>
<path d="M238.697 149.628V157.118" stroke="white" stroke-width="4" stroke-linecap="round" stroke-linejoin="round"/>
<path d="M242.518 153.374H234.876" stroke="white" stroke-width="4" stroke-linecap="round" stroke-linejoin="round"/>
<path d="M251.732 149.856H251.518" stroke="white" stroke-width="4" stroke-linecap="round" stroke-linejoin="round"/>
<path d="M255.359 157.005H255.145" stroke="white" stroke-width="4" stroke-linecap="round" stroke-linejoin="round"/>
<path opacity="0.4" d="M237.144 129C237.144 130.481 238.369 131.682 239.88 131.682H241.993C244.325 131.69 246.213 133.541 246.223 135.825V137.175" stroke="white" stroke-width="4" stroke-linecap="round" stroke-linejoin="round"/>
<path fill-rule="evenodd" clip-rule="evenodd" d="M253.857 168.925C247.846 169.027 241.946 169.023 236.145 168.925C229.707 168.925 225 164.333 225 158.023V148.723C225 142.413 229.707 137.821 236.145 137.821C241.978 137.721 247.882 137.723 253.857 137.821C260.295 137.821 265 142.415 265 148.723V158.023C265 164.333 260.295 168.925 253.857 168.925Z" stroke="white" stroke-width="4" stroke-linecap="round" stroke-linejoin="round"/>
<g filter="url(#filter2_d_3_340)">
<rect x="432" y="244" width="290" height="284" rx="8" fill="white"/>
</g>
<path d="M506.708 416.048V422H502.604V405.032H509.252C511.268 405.032 512.804 405.536 513.859 406.544C514.916 407.536 515.444 408.88 515.444 410.576C515.444 411.632 515.204 412.576 514.724 413.408C514.26 414.224 513.564 414.872 512.636 415.352C511.708 415.816 510.58 416.048 509.252 416.048H506.708ZM508.796 412.76C510.444 412.76 511.268 412.032 511.268 410.576C511.268 409.088 510.444 408.344 508.796 408.344H506.708V412.76H508.796ZM521.567 411.128C522.079 410.312 522.735 409.664 523.535 409.184C524.351 408.704 525.231 408.464 526.175 408.464V412.856H524.999C523.911 412.856 523.063 413.088 522.455 413.552C521.863 414.016 521.567 414.8 521.567 415.904V422H517.463V408.608H521.567V411.128ZM534.157 408.44C535.485 408.44 536.669 408.72 537.709 409.28C538.765 409.824 539.589 410.616 540.181 411.656C540.789 412.696 541.093 413.912 541.093 415.304C541.093 416.696 540.789 417.912 540.181 418.952C539.589 419.992 538.765 420.792 537.709 421.352C536.669 421.896 535.485 422.168 534.157 422.168C532.829 422.168 531.637 421.896 530.581 421.352C529.525 420.792 528.693 419.992 528.085 418.952C527.493 417.912 527.197 416.696 527.197 415.304C527.197 413.912 527.493 412.696 528.085 411.656C528.693 410.616 529.525 409.824 530.581 409.28C531.637 408.72 532.829 408.44 534.157 408.44ZM534.157 411.992C533.373 411.992 532.709 412.28 532.165 412.856C531.637 413.416 531.373 414.232 531.373 415.304C531.373 416.376 531.637 417.192 532.165 417.752C532.709 418.312 533.373 418.592 534.157 418.592C534.941 418.592 535.597 418.312 536.125 417.752C536.653 417.192 536.917 416.376 536.917 415.304C536.917 414.232 536.653 413.416 536.125 412.856C535.597 412.28 534.941 411.992 534.157 411.992ZM549.797 406.784C549.125 406.784 548.637 406.928 548.333 407.216C548.029 407.504 547.861 407.968 547.829 408.608H550.253V412.064H547.829V422H543.725V412.064H542.117V408.608H543.725V408.464C543.725 406.8 544.205 405.52 545.165 404.624C546.141 403.712 547.549 403.256 549.389 403.256C549.773 403.256 550.061 403.264 550.253 403.28V406.808L549.797 406.784ZM564.777 414.944C564.777 415.28 564.737 415.648 564.657 416.048H555.369C555.417 417.056 555.673 417.784 556.137 418.232C556.601 418.664 557.193 418.88 557.913 418.88C558.521 418.88 559.025 418.728 559.425 418.424C559.825 418.12 560.089 417.728 560.217 417.248H564.561C564.385 418.192 564.001 419.04 563.409 419.792C562.817 420.528 562.065 421.112 561.153 421.544C560.241 421.96 559.225 422.168 558.105 422.168C556.793 422.168 555.625 421.896 554.601 421.352C553.593 420.792 552.801 419.992 552.225 418.952C551.649 417.912 551.361 416.696 551.361 415.304C551.361 413.896 551.641 412.68 552.201 411.656C552.777 410.616 553.577 409.824 554.601 409.28C555.625 408.72 556.793 408.44 558.105 408.44C559.433 408.44 560.601 408.712 561.609 409.256C562.617 409.8 563.393 410.568 563.937 411.56C564.497 412.536 564.777 413.664 564.777 414.944ZM560.625 414.32C560.641 413.44 560.401 412.784 559.905 412.352C559.425 411.904 558.825 411.68 558.105 411.68C557.353 411.68 556.729 411.904 556.233 412.352C555.737 412.8 555.457 413.456 555.393 414.32H560.625ZM571.788 408.44C573.484 408.44 574.836 408.864 575.844 409.712C576.868 410.56 577.508 411.68 577.764 413.072H573.924C573.812 412.528 573.556 412.104 573.156 411.8C572.772 411.48 572.284 411.32 571.692 411.32C571.228 411.32 570.876 411.424 570.636 411.632C570.396 411.824 570.276 412.104 570.276 412.472C570.276 412.888 570.492 413.2 570.924 413.408C571.372 413.616 572.068 413.824 573.012 414.032C574.036 414.272 574.876 414.52 575.532 414.776C576.188 415.016 576.756 415.416 577.236 415.976C577.716 416.536 577.956 417.288 577.956 418.232C577.956 419 577.748 419.68 577.332 420.272C576.916 420.864 576.316 421.328 575.532 421.664C574.748 422 573.82 422.168 572.748 422.168C570.94 422.168 569.492 421.768 568.404 420.968C567.316 420.168 566.652 419.024 566.412 417.536H570.372C570.436 418.112 570.676 418.552 571.092 418.856C571.524 419.16 572.076 419.312 572.748 419.312C573.212 419.312 573.564 419.208 573.804 419C574.044 418.776 574.164 418.488 574.164 418.136C574.164 417.672 573.94 417.344 573.492 417.152C573.06 416.944 572.348 416.728 571.356 416.504C570.364 416.296 569.548 416.072 568.908 415.832C568.268 415.592 567.716 415.208 567.252 414.68C566.788 414.136 566.556 413.4 566.556 412.472C566.556 411.272 567.012 410.304 567.924 409.568C568.836 408.816 570.124 408.44 571.788 408.44ZM585.101 408.44C586.797 408.44 588.149 408.864 589.157 409.712C590.181 410.56 590.821 411.68 591.077 413.072H587.237C587.125 412.528 586.869 412.104 586.469 411.8C586.085 411.48 585.597 411.32 585.005 411.32C584.541 411.32 584.189 411.424 583.949 411.632C583.709 411.824 583.589 412.104 583.589 412.472C583.589 412.888 583.805 413.2 584.237 413.408C584.685 413.616 585.381 413.824 586.325 414.032C587.349 414.272 588.189 414.52 588.845 414.776C589.501 415.016 590.069 415.416 590.549 415.976C591.029 416.536 591.269 417.288 591.269 418.232C591.269 419 591.061 419.68 590.645 420.272C590.229 420.864 589.629 421.328 588.845 421.664C588.061 422 587.133 422.168 586.061 422.168C584.253 422.168 582.805 421.768 581.717 420.968C580.629 420.168 579.965 419.024 579.725 417.536H583.685C583.749 418.112 583.989 418.552 584.405 418.856C584.837 419.16 585.389 419.312 586.061 419.312C586.525 419.312 586.877 419.208 587.117 419C587.357 418.776 587.477 418.488 587.477 418.136C587.477 417.672 587.253 417.344 586.805 417.152C586.373 416.944 585.661 416.728 584.669 416.504C583.677 416.296 582.861 416.072 582.221 415.832C581.581 415.592 581.029 415.208 580.565 414.68C580.101 414.136 579.869 413.4 579.869 412.472C579.869 411.272 580.325 410.304 581.237 409.568C582.149 408.816 583.437 408.44 585.101 408.44ZM593.157 404.84C593.157 404.216 593.381 403.704 593.829 403.304C594.277 402.888 594.869 402.68 595.605 402.68C596.341 402.68 596.933 402.888 597.381 403.304C597.829 403.704 598.053 404.216 598.053 404.84C598.053 405.448 597.829 405.96 597.381 406.376C596.933 406.776 596.341 406.976 595.605 406.976C594.869 406.976 594.277 406.776 593.829 406.376C593.381 405.96 593.157 405.448 593.157 404.84ZM597.645 408.608V422H593.541V408.608H597.645ZM606.743 408.44C608.071 408.44 609.255 408.72 610.295 409.28C611.351 409.824 612.175 410.616 612.767 411.656C613.375 412.696 613.679 413.912 613.679 415.304C613.679 416.696 613.375 417.912 612.767 418.952C612.175 419.992 611.351 420.792 610.295 421.352C609.255 421.896 608.071 422.168 606.743 422.168C605.415 422.168 604.223 421.896 603.167 421.352C602.111 420.792 601.279 419.992 600.671 418.952C600.079 417.912 599.783 416.696 599.783 415.304C599.783 413.912 600.079 412.696 600.671 411.656C601.279 410.616 602.111 409.824 603.167 409.28C604.223 408.72 605.415 408.44 606.743 408.44ZM606.743 411.992C605.959 411.992 605.295 412.28 604.751 412.856C604.223 413.416 603.959 414.232 603.959 415.304C603.959 416.376 604.223 417.192 604.751 417.752C605.295 418.312 605.959 418.592 606.743 418.592C607.527 418.592 608.183 418.312 608.711 417.752C609.239 417.192 609.503 416.376 609.503 415.304C609.503 414.232 609.239 413.416 608.711 412.856C608.183 412.28 607.527 411.992 606.743 411.992ZM624.303 408.464C625.839 408.464 627.055 408.976 627.951 410C628.863 411.024 629.319 412.432 629.319 414.224V422H625.215V414.704C625.215 413.808 624.975 413.112 624.495 412.616C624.031 412.104 623.407 411.848 622.623 411.848C621.791 411.848 621.127 412.112 620.631 412.64C620.151 413.168 619.911 413.92 619.911 414.896V422H615.807V408.608H619.911V411.056C620.295 410.256 620.863 409.624 621.615 409.16C622.383 408.696 623.279 408.464 624.303 408.464ZM637.113 408.44C638.137 408.44 639.017 408.672 639.753 409.136C640.489 409.6 641.033 410.232 641.385 411.032V408.608H645.465V422H641.385V419.576C641.033 420.376 640.489 421.008 639.753 421.472C639.017 421.936 638.137 422.168 637.113 422.168C636.009 422.168 635.017 421.896 634.137 421.352C633.273 420.792 632.585 419.992 632.073 418.952C631.577 417.912 631.329 416.696 631.329 415.304C631.329 413.896 631.577 412.68 632.073 411.656C632.585 410.616 633.273 409.824 634.137 409.28C635.017 408.72 636.009 408.44 637.113 408.44ZM638.433 412.04C637.553 412.04 636.841 412.328 636.297 412.904C635.769 413.48 635.505 414.28 635.505 415.304C635.505 416.328 635.769 417.128 636.297 417.704C636.841 418.28 637.553 418.568 638.433 418.568C639.297 418.568 640.001 418.272 640.545 417.68C641.105 417.088 641.385 416.296 641.385 415.304C641.385 414.296 641.105 413.504 640.545 412.928C640.001 412.336 639.297 412.04 638.433 412.04ZM652.395 404.24V422H648.291V404.24H652.395ZM555.893 439.032V442.296H551.285V456H547.157V442.296H542.597V439.032H555.893ZM570.343 448.944C570.343 449.28 570.303 449.648 570.223 450.048H560.935C560.983 451.056 561.239 451.784 561.703 452.232C562.167 452.664 562.759 452.88 563.479 452.88C564.087 452.88 564.591 452.728 564.991 452.424C565.391 452.12 565.655 451.728 565.783 451.248H570.127C569.951 452.192 569.567 453.04 568.975 453.792C568.383 454.528 567.631 455.112 566.719 455.544C565.807 455.96 564.791 456.168 563.671 456.168C562.359 456.168 561.191 455.896 560.167 455.352C559.159 454.792 558.367 453.992 557.791 452.952C557.215 451.912 556.927 450.696 556.927 449.304C556.927 447.896 557.207 446.68 557.767 445.656C558.343 444.616 559.143 443.824 560.167 443.28C561.191 442.72 562.359 442.44 563.671 442.44C564.999 442.44 566.167 442.712 567.175 443.256C568.183 443.8 568.959 444.568 569.503 445.56C570.063 446.536 570.343 447.664 570.343 448.944ZM566.191 448.32C566.207 447.44 565.967 446.784 565.471 446.352C564.991 445.904 564.391 445.68 563.671 445.68C562.919 445.68 562.295 445.904 561.799 446.352C561.303 446.8 561.023 447.456 560.959 448.32H566.191ZM577.57 442.44C578.594 442.44 579.474 442.672 580.21 443.136C580.946 443.6 581.49 444.232 581.842 445.032V442.608H585.922V456H581.842V453.576C581.49 454.376 580.946 455.008 580.21 455.472C579.474 455.936 578.594 456.168 577.57 456.168C576.466 456.168 575.474 455.896 574.594 455.352C573.73 454.792 573.042 453.992 572.53 452.952C572.034 451.912 571.786 450.696 571.786 449.304C571.786 447.896 572.034 446.68 572.53 445.656C573.042 444.616 573.73 443.824 574.594 443.28C575.474 442.72 576.466 442.44 577.57 442.44ZM578.89 446.04C578.01 446.04 577.298 446.328 576.754 446.904C576.226 447.48 575.962 448.28 575.962 449.304C575.962 450.328 576.226 451.128 576.754 451.704C577.298 452.28 578.01 452.568 578.89 452.568C579.754 452.568 580.458 452.272 581.002 451.68C581.562 451.088 581.842 450.296 581.842 449.304C581.842 448.296 581.562 447.504 581.002 446.928C580.458 446.336 579.754 446.04 578.89 446.04ZM606.1 442.464C607.748 442.464 609.044 442.976 609.988 444C610.932 445.008 611.404 446.416 611.404 448.224V456H607.324V448.704C607.324 447.856 607.092 447.2 606.628 446.736C606.18 446.256 605.564 446.016 604.78 446.016C603.964 446.016 603.316 446.272 602.836 446.784C602.372 447.28 602.14 447.984 602.14 448.896V456H598.036V448.704C598.036 447.856 597.812 447.2 597.364 446.736C596.916 446.256 596.3 446.016 595.516 446.016C594.7 446.016 594.052 446.264 593.572 446.76C593.092 447.256 592.852 447.968 592.852 448.896V456H588.748V442.608H592.852V444.888C593.204 444.136 593.74 443.544 594.46 443.112C595.196 442.68 596.052 442.464 597.028 442.464C598.052 442.464 598.956 442.704 599.74 443.184C600.524 443.648 601.116 444.32 601.516 445.2C601.98 444.368 602.612 443.704 603.412 443.208C604.228 442.712 605.124 442.464 606.1 442.464Z" fill="#0B1131"/>
<g filter="url(#filter3_d_3_340)">
<path d="M613 343C613 323.118 596.882 307 577 307C557.118 307 541 323.118 541 343V379H577C596.882 379 613 362.882 613 343Z" fill="#3029D9"/>
</g>
<path opacity="0.4" d="M588.024 341.153C591.149 341.153 593.684 338.62 593.684 335.495C593.684 332.37 591.149 329.837 588.024 329.837" stroke="white" stroke-width="4" stroke-linecap="round" stroke-linejoin="round"/>
<path d="M590.626 347.302C591.559 347.367 592.487 347.499 593.4 347.705C594.67 347.953 596.196 348.473 596.74 349.612C597.087 350.342 597.087 351.191 596.74 351.922C596.198 353.061 594.67 353.579 593.4 353.84" stroke="white" stroke-width="4" stroke-linecap="round" stroke-linejoin="round"/>
<path opacity="0.4" d="M565.976 341.153C562.851 341.153 560.316 338.62 560.316 335.495C560.316 332.37 562.851 329.837 565.976 329.837" stroke="white" stroke-width="4" stroke-linecap="round" stroke-linejoin="round"/>
<path d="M563.374 347.302C562.441 347.367 561.513 347.499 560.599 347.705C559.33 347.953 557.803 348.473 557.261 349.612C556.913 350.342 556.913 351.191 557.261 351.922C557.801 353.061 559.33 353.579 560.599 353.84" stroke="white" stroke-width="4" stroke-linecap="round" stroke-linejoin="round"/>
<path fill-rule="evenodd" clip-rule="evenodd" d="M576.991 348.521C583.323 348.521 588.733 349.479 588.733 353.314C588.733 357.147 583.359 358.141 576.991 358.141C570.657 358.141 565.249 357.182 565.249 353.348C565.249 349.513 570.623 348.521 576.991 348.521Z" stroke="white" stroke-width="4" stroke-linecap="round" stroke-linejoin="round"/>
<path opacity="0.4" fill-rule="evenodd" clip-rule="evenodd" d="M576.991 343.051C572.814 343.051 569.466 339.703 569.466 335.525C569.466 331.348 572.814 328 576.991 328C581.167 328 584.515 331.348 584.515 335.525C584.515 339.703 581.167 343.051 576.991 343.051Z" stroke="white" stroke-width="4" stroke-linecap="round" stroke-linejoin="round"/>
<g filter="url(#filter4_d_3_340)">
<rect x="100" y="370" width="290" height="284" rx="8" fill="white"/>
</g>
<path d="M220.675 544.736C225.763 541.104 228.307 538.216 228.307 536.072C228.307 534.76 227.739 534.104 226.603 534.104C225.963 534.104 225.491 534.328 225.187 534.776C224.899 535.224 224.739 535.92 224.707 536.864H220.699C220.795 534.8 221.419 533.248 222.571 532.208C223.723 531.168 225.179 530.648 226.939 530.648C228.779 530.648 230.163 531.112 231.091 532.04C232.035 532.968 232.507 534.176 232.507 535.664C232.507 537.312 231.875 538.928 230.611 540.512C229.347 542.08 227.835 543.408 226.075 544.496H232.771V547.808H220.675V544.736ZM234.509 544.88V541.448L242.261 530.816H246.677V541.304H248.717V544.88H246.677V548H242.525V544.88H234.509ZM242.861 535.568L238.685 541.304H242.861V535.568ZM259.514 525.2L253.058 552.512H249.098L255.554 525.2H259.514ZM270.714 533.912L264.642 548H260.394L266.538 534.392H259.338V530.864H270.714V533.912ZM209.713 577.224C209.713 578.12 209.481 578.944 209.017 579.696C208.569 580.448 207.897 581.048 207.001 581.496C206.121 581.944 205.049 582.168 203.785 582.168C201.881 582.168 200.313 581.704 199.081 580.776C197.849 579.848 197.177 578.552 197.065 576.888H201.433C201.497 577.528 201.721 578.032 202.105 578.4C202.505 578.768 203.009 578.952 203.617 578.952C204.145 578.952 204.561 578.808 204.865 578.52C205.169 578.232 205.321 577.848 205.321 577.368C205.321 576.936 205.177 576.576 204.889 576.288C204.617 576 204.273 575.768 203.857 575.592C203.441 575.4 202.865 575.176 202.129 574.92C201.057 574.552 200.177 574.2 199.489 573.864C198.817 573.512 198.233 573 197.737 572.328C197.257 571.64 197.017 570.752 197.017 569.664C197.017 568.656 197.273 567.784 197.785 567.048C198.297 566.312 199.001 565.752 199.897 565.368C200.809 564.968 201.849 564.768 203.017 564.768C204.905 564.768 206.401 565.216 207.505 566.112C208.625 567.008 209.257 568.24 209.401 569.808H204.961C204.881 569.248 204.673 568.808 204.337 568.488C204.017 568.152 203.577 567.984 203.017 567.984C202.537 567.984 202.145 568.112 201.841 568.368C201.553 568.624 201.409 569 201.409 569.496C201.409 569.896 201.537 570.24 201.793 570.528C202.065 570.8 202.401 571.024 202.801 571.2C203.201 571.376 203.777 571.6 204.529 571.872C205.617 572.24 206.505 572.608 207.193 572.976C207.881 573.328 208.473 573.848 208.969 574.536C209.465 575.224 209.713 576.12 209.713 577.224ZM225.302 568.608V582H221.174V579.576C220.79 580.36 220.214 580.984 219.446 581.448C218.694 581.912 217.814 582.144 216.806 582.144C215.27 582.144 214.046 581.632 213.134 580.608C212.238 579.584 211.79 578.176 211.79 576.384V568.608H215.87V575.88C215.87 576.792 216.102 577.504 216.566 578.016C217.046 578.512 217.686 578.76 218.486 578.76C219.318 578.76 219.974 578.496 220.454 577.968C220.934 577.44 221.174 576.688 221.174 575.712V568.608H225.302ZM236.483 568.44C237.587 568.44 238.571 568.72 239.435 569.28C240.315 569.824 241.003 570.616 241.499 571.656C242.011 572.68 242.267 573.896 242.267 575.304C242.267 576.696 242.011 577.912 241.499 578.952C241.003 579.992 240.315 580.792 239.435 581.352C238.571 581.896 237.587 582.168 236.483 582.168C235.459 582.168 234.579 581.936 233.843 581.472C233.107 581.008 232.571 580.376 232.235 579.576V588.384H228.131V568.608H232.235V571.032C232.571 570.232 233.107 569.6 233.843 569.136C234.579 568.672 235.459 568.44 236.483 568.44ZM235.163 572.04C234.299 572.04 233.587 572.336 233.027 572.928C232.483 573.504 232.211 574.296 232.211 575.304C232.211 576.296 232.483 577.088 233.027 577.68C233.587 578.272 234.299 578.568 235.163 578.568C236.043 578.568 236.747 578.28 237.275 577.704C237.819 577.128 238.091 576.328 238.091 575.304C238.091 574.28 237.819 573.48 237.275 572.904C236.747 572.328 236.043 572.04 235.163 572.04ZM252.748 568.44C253.852 568.44 254.836 568.72 255.7 569.28C256.58 569.824 257.268 570.616 257.764 571.656C258.276 572.68 258.532 573.896 258.532 575.304C258.532 576.696 258.276 577.912 257.764 578.952C257.268 579.992 256.58 580.792 255.7 581.352C254.836 581.896 253.852 582.168 252.748 582.168C251.724 582.168 250.844 581.936 250.108 581.472C249.372 581.008 248.836 580.376 248.5 579.576V588.384H244.396V568.608H248.5V571.032C248.836 570.232 249.372 569.6 250.108 569.136C250.844 568.672 251.724 568.44 252.748 568.44ZM251.428 572.04C250.564 572.04 249.852 572.336 249.292 572.928C248.748 573.504 248.476 574.296 248.476 575.304C248.476 576.296 248.748 577.088 249.292 577.68C249.852 578.272 250.564 578.568 251.428 578.568C252.308 578.568 253.012 578.28 253.54 577.704C254.084 577.128 254.356 576.328 254.356 575.304C254.356 574.28 254.084 573.48 253.54 572.904C253.012 572.328 252.308 572.04 251.428 572.04ZM266.926 568.44C268.254 568.44 269.438 568.72 270.478 569.28C271.534 569.824 272.358 570.616 272.95 571.656C273.558 572.696 273.862 573.912 273.862 575.304C273.862 576.696 273.558 577.912 272.95 578.952C272.358 579.992 271.534 580.792 270.478 581.352C269.438 581.896 268.254 582.168 266.926 582.168C265.598 582.168 264.406 581.896 263.35 581.352C262.294 580.792 261.462 579.992 260.854 578.952C260.262 577.912 259.966 576.696 259.966 575.304C259.966 573.912 260.262 572.696 260.854 571.656C261.462 570.616 262.294 569.824 263.35 569.28C264.406 568.72 265.598 568.44 266.926 568.44ZM266.926 571.992C266.142 571.992 265.478 572.28 264.934 572.856C264.406 573.416 264.142 574.232 264.142 575.304C264.142 576.376 264.406 577.192 264.934 577.752C265.478 578.312 266.142 578.592 266.926 578.592C267.71 578.592 268.366 578.312 268.894 577.752C269.422 577.192 269.686 576.376 269.686 575.304C269.686 574.232 269.422 573.416 268.894 572.856C268.366 572.28 267.71 571.992 266.926 571.992ZM280.094 571.128C280.606 570.312 281.262 569.664 282.062 569.184C282.878 568.704 283.758 568.464 284.702 568.464V572.856H283.526C282.438 572.856 281.59 573.088 280.982 573.552C280.39 574.016 280.094 574.8 280.094 575.904V582H275.99V568.608H280.094V571.128ZM294.004 578.472V582H292.156C290.588 582 289.364 581.616 288.484 580.848C287.62 580.064 287.188 578.776 287.188 576.984V572.064H285.388V568.608H287.188V565.32H291.292V568.608H293.98V572.064H291.292V577.056C291.292 577.584 291.396 577.952 291.604 578.16C291.828 578.368 292.196 578.472 292.708 578.472H294.004Z" fill="#0B1131"/>
<g filter="url(#filter5_d_3_340)">
<path d="M281 469C281 449.118 264.882 433 245 433C225.118 433 209 449.118 209 469V505H245C264.882 505 281 488.882 281 469Z" fill="#3029D9"/>
</g>
<path fill-rule="evenodd" clip-rule="evenodd" d="M226.032 453.995C226.698 452.892 230.367 448.882 232.986 449.003C233.768 449.068 234.46 449.541 235.022 450.09C236.313 451.351 240.008 456.118 240.218 457.121C240.728 459.581 237.796 461 238.694 463.48C240.981 469.077 244.923 473.019 250.523 475.304C253.001 476.201 254.419 473.269 256.88 473.782C257.881 473.991 262.65 477.686 263.911 478.977C264.458 479.537 264.933 480.231 264.998 481.014C265.096 483.77 260.836 487.491 260.006 487.967C258.047 489.368 255.491 489.344 252.376 487.895C243.682 484.278 229.788 470.647 226.104 461.625C224.694 458.526 224.597 455.954 226.032 453.995Z" stroke="white" stroke-width="4" stroke-linecap="round" stroke-linejoin="round"/>
<path opacity="0.4" d="M228.964 451.725L232.057 456.312" stroke="white" stroke-width="4" stroke-linecap="round" stroke-linejoin="round"/>
<path opacity="0.4" d="M257.346 481.772L261.952 485.372" stroke="white" stroke-width="4" stroke-linecap="round" stroke-linejoin="round"/>
<defs>
<filter id="filter0_d_3_340" x="0" y="0" width="490" height="484" filterUnits="userSpaceOnUse" color-interpolation-filters="sRGB">
<feFlood flood-opacity="0" result="BackgroundImageFix"/>
<feColorMatrix in="SourceAlpha" type="matrix" values="0 0 0 0 0 0 0 0 0 0 0 0 0 0 0 0 0 0 127 0" result="hardAlpha"/>
<feOffset dy="50"/>
<feGaussianBlur stdDeviation="50"/>
<feColorMatrix type="matrix" values="0 0 0 0 0 0 0 0 0 0 0 0 0 0 0 0 0 0 0.1 0"/>
<feBlend mode="normal" in2="BackgroundImageFix" result="effect1_dropShadow_3_340"/>
<feBlend mode="normal" in="SourceGraphic" in2="effect1_dropShadow_3_340" result="shape"/>
</filter>
<filter id="filter1_d_3_340" x="159" y="73" width="172" height="172" filterUnits="userSpaceOnUse" color-interpolation-filters="sRGB">
<feFlood flood-opacity="0" result="BackgroundImageFix"/>
<feColorMatrix in="SourceAlpha" type="matrix" values="0 0 0 0 0 0 0 0 0 0 0 0 0 0 0 0 0 0 127 0" result="hardAlpha"/>
<feOffset dy="10"/>
<feGaussianBlur stdDeviation="25"/>
<feColorMatrix type="matrix" values="0 0 0 0 0.188235 0 0 0 0 0.160784 0 0 0 0 0.85098 0 0 0 0.3 0"/>
<feBlend mode="normal" in2="BackgroundImageFix" result="effect1_dropShadow_3_340"/>
<feBlend mode="normal" in="SourceGraphic" in2="effect1_dropShadow_3_340" result="shape"/>
</filter>
<filter id="filter2_d_3_340" x="332" y="194" width="490" height="484" filterUnits="userSpaceOnUse" color-interpolation-filters="sRGB">
<feFlood flood-opacity="0" result="BackgroundImageFix"/>
<feColorMatrix in="SourceAlpha" type="matrix" values="0 0 0 0 0 0 0 0 0 0 0 0 0 0 0 0 0 0 127 0" result="hardAlpha"/>
<feOffset dy="50"/>
<feGaussianBlur stdDeviation="50"/>
<feColorMatrix type="matrix" values="0 0 0 0 0 0 0 0 0 0 0 0 0 0 0 0 0 0 0.1 0"/>
<feBlend mode="normal" in2="BackgroundImageFix" result="effect1_dropShadow_3_340"/>
<feBlend mode="normal" in="SourceGraphic" in2="effect1_dropShadow_3_340" result="shape"/>
</filter>
<filter id="filter3_d_3_340" x="491" y="267" width="172" height="172" filterUnits="userSpaceOnUse" color-interpolation-filters="sRGB">
<feFlood flood-opacity="0" result="BackgroundImageFix"/>
<feColorMatrix in="SourceAlpha" type="matrix" values="0 0 0 0 0 0 0 0 0 0 0 0 0 0 0 0 0 0 127 0" result="hardAlpha"/>
<feOffset dy="10"/>
<feGaussianBlur stdDeviation="25"/>
<feColorMatrix type="matrix" values="0 0 0 0 0.188235 0 0 0 0 0.160784 0 0 0 0 0.85098 0 0 0 0.3 0"/>
<feBlend mode="normal" in2="BackgroundImageFix" result="effect1_dropShadow_3_340"/>
<feBlend mode="normal" in="SourceGraphic" in2="effect1_dropShadow_3_340" result="shape"/>
</filter>
<filter id="filter4_d_3_340" x="0" y="320" width="490" height="484" filterUnits="userSpaceOnUse" color-interpolation-filters="sRGB">
<feFlood flood-opacity="0" result="BackgroundImageFix"/>
<feColorMatrix in="SourceAlpha" type="matrix" values="0 0 0 0 0 0 0 0 0 0 0 0 0 0 0 0 0 0 127 0" result="hardAlpha"/>
<feOffset dy="50"/>
<feGaussianBlur stdDeviation="50"/>
<feColorMatrix type="matrix" values="0 0 0 0 0 0 0 0 0 0 0 0 0 0 0 0 0 0 0.1 0"/>
<feBlend mode="normal" in2="BackgroundImageFix" result="effect1_dropShadow_3_340"/>
<feBlend mode="normal" in="SourceGraphic" in2="effect1_dropShadow_3_340" result="shape"/>
</filter>
<filter id="filter5_d_3_340" x="159" y="393" width="172" height="172" filterUnits="userSpaceOnUse" color-interpolation-filters="sRGB">
<feFlood flood-opacity="0" result="BackgroundImageFix"/>
<feColorMatrix in="SourceAlpha" type="matrix" values="0 0 0 0 0 0 0 0 0 0 0 0 0 0 0 0 0 0 127 0" result="hardAlpha"/>
<feOffset dy="10"/>
<feGaussianBlur stdDeviation="25"/>
<feColorMatrix type="matrix" values="0 0 0 0 0.188235 0 0 0 0 0.160784 0 0 0 0 0.85098 0 0 0 0.3 0"/>
<feBlend mode="normal" in2="BackgroundImageFix" result="effect1_dropShadow_3_340"/>
<feBlend mode="normal" in="SourceGraphic" in2="effect1_dropShadow_3_340" result="shape"/>
</filter>
</defs>
</svg>
