<svg width="172" height="172" viewBox="0 0 172 172" fill="none" xmlns="http://www.w3.org/2000/svg">
<g id="Group 66">
<g id="Rectangle 53" filter="url(#filter0_d_3_359)">
<path d="M122 76C122 56.1178 105.882 40 86 40C66.1177 40 50 56.1178 50 76V112H86C105.882 112 122 95.8823 122 76Z" fill="#3029D9"/>
</g>
<g id="Iconly/Two tone/3 User">
<g id="3 User">
<path id="Stroke 1" opacity="0.4" d="M97.0236 74.1534C100.149 74.1534 102.684 71.6202 102.684 68.4952C102.684 65.3702 100.149 62.8369 97.0236 62.8369" stroke="white" stroke-width="4" stroke-linecap="round" stroke-linejoin="round"/>
<path id="Stroke 3" d="M99.6258 80.3025C100.559 80.3668 101.487 80.4991 102.4 80.7047C103.67 80.9532 105.196 81.4735 105.74 82.6123C106.087 83.3417 106.087 84.1909 105.74 84.9221C105.198 86.0609 103.67 86.5793 102.4 86.8403" stroke="white" stroke-width="4" stroke-linecap="round" stroke-linejoin="round"/>
<path id="Stroke 5" opacity="0.4" d="M74.9759 74.1534C71.8509 74.1534 69.3159 71.6202 69.3159 68.4952C69.3159 65.3702 71.8509 62.8369 74.9759 62.8369" stroke="white" stroke-width="4" stroke-linecap="round" stroke-linejoin="round"/>
<path id="Stroke 7" d="M72.3738 80.3025C71.4406 80.3668 70.5128 80.4991 69.5992 80.7047C68.3299 80.9532 66.8032 81.4735 66.2615 82.6123C65.9128 83.3417 65.9128 84.1909 66.2615 84.9221C66.8014 86.0609 68.3299 86.5793 69.5992 86.8403" stroke="white" stroke-width="4" stroke-linecap="round" stroke-linejoin="round"/>
<path id="Stroke 9" fill-rule="evenodd" clip-rule="evenodd" d="M85.9906 81.5208C92.3229 81.5208 97.7326 82.479 97.7326 86.3137C97.7326 90.1467 92.3586 91.1407 85.9906 91.1407C79.6566 91.1407 74.2486 90.1825 74.2486 86.3477C74.2486 82.513 79.6226 81.5208 85.9906 81.5208Z" stroke="white" stroke-width="4" stroke-linecap="round" stroke-linejoin="round"/>
<path id="Stroke 11" opacity="0.4" fill-rule="evenodd" clip-rule="evenodd" d="M85.9906 76.0512C81.8144 76.0512 78.4659 72.7027 78.4659 68.5247C78.4659 64.3485 81.8144 61 85.9906 61C90.1668 61 93.5153 64.3485 93.5153 68.5247C93.5153 72.7027 90.1668 76.0512 85.9906 76.0512Z" stroke="white" stroke-width="4" stroke-linecap="round" stroke-linejoin="round"/>
</g>
</g>
</g>
<defs>
<filter id="filter0_d_3_359" x="0" y="0" width="172" height="172" filterUnits="userSpaceOnUse" color-interpolation-filters="sRGB">
<feFlood flood-opacity="0" result="BackgroundImageFix"/>
<feColorMatrix in="SourceAlpha" type="matrix" values="0 0 0 0 0 0 0 0 0 0 0 0 0 0 0 0 0 0 127 0" result="hardAlpha"/>
<feOffset dy="10"/>
<feGaussianBlur stdDeviation="25"/>
<feColorMatrix type="matrix" values="0 0 0 0 0.188235 0 0 0 0 0.160784 0 0 0 0 0.85098 0 0 0 0.3 0"/>
<feBlend mode="normal" in2="BackgroundImageFix" result="effect1_dropShadow_3_359"/>
<feBlend mode="normal" in="SourceGraphic" in2="effect1_dropShadow_3_359" result="shape"/>
</filter>
</defs>
</svg>
