<svg width="172" height="172" viewBox="0 0 172 172" fill="none" xmlns="http://www.w3.org/2000/svg">
<g id="Group 67">
<g id="Rectangle 55" filter="url(#filter0_d_3_373)">
<path d="M122 76C122 56.1178 105.882 40 86 40C66.1177 40 50 56.1178 50 76V112H86C105.882 112 122 95.8823 122 76Z" fill="#3029D9"/>
</g>
<g id="Iconly/Two tone/Call">
<g id="Call">
<path id="Vector" fill-rule="evenodd" clip-rule="evenodd" d="M67.0323 60.9948C67.6982 59.8922 71.3674 55.8816 73.9857 56.0027C74.7684 56.0675 75.4603 56.541 76.0225 57.0902C77.3133 58.3506 81.0083 63.1179 81.2181 64.1211C81.7283 66.5815 78.7965 67.9998 79.6938 70.4796C81.9813 76.0771 85.9229 80.0185 91.5228 82.3038C94.0006 83.201 95.419 80.2693 97.8795 80.7817C98.8806 80.9914 103.65 84.6863 104.911 85.9771C105.458 86.537 105.933 87.231 105.998 88.0137C106.096 90.7703 101.836 94.4911 101.006 94.9668C99.0471 96.3678 96.4914 96.344 93.3758 94.8954C84.6818 91.2784 70.7879 77.6468 67.1036 68.6246C65.6939 65.5264 65.5966 62.9536 67.0323 60.9948Z" stroke="white" stroke-width="4" stroke-linecap="round" stroke-linejoin="round"/>
<path id="Stroke 1" opacity="0.4" d="M69.964 58.7246L73.0566 63.312" stroke="white" stroke-width="4" stroke-linecap="round" stroke-linejoin="round"/>
<path id="Stroke 3" opacity="0.4" d="M98.3459 88.7725L102.952 92.3725" stroke="white" stroke-width="4" stroke-linecap="round" stroke-linejoin="round"/>
</g>
</g>
</g>
<defs>
<filter id="filter0_d_3_373" x="0" y="0" width="172" height="172" filterUnits="userSpaceOnUse" color-interpolation-filters="sRGB">
<feFlood flood-opacity="0" result="BackgroundImageFix"/>
<feColorMatrix in="SourceAlpha" type="matrix" values="0 0 0 0 0 0 0 0 0 0 0 0 0 0 0 0 0 0 127 0" result="hardAlpha"/>
<feOffset dy="10"/>
<feGaussianBlur stdDeviation="25"/>
<feColorMatrix type="matrix" values="0 0 0 0 0.188235 0 0 0 0 0.160784 0 0 0 0 0.85098 0 0 0 0.3 0"/>
<feBlend mode="normal" in2="BackgroundImageFix" result="effect1_dropShadow_3_373"/>
<feBlend mode="normal" in="SourceGraphic" in2="effect1_dropShadow_3_373" result="shape"/>
</filter>
</defs>
</svg>
